<svg viewBox="0 0 64 64" xmlns="http://www.w3.org/2000/svg"><g id="_02-Pressure" data-name="02-Pressure"><path d="m47 37a13 13 0 0 0 .109-25.994 17.982 17.982 0 0 0 -33.68 4.119 10.993 10.993 0 0 0 -9.429 10.875c0 6.075 6 11 14 11z" fill="#a4eaff"></path><path d="m47.11 11h-.11a12.991 12.991 0 0 0 -11.3 6.59 12 12 0 0 0 -12.65 19.41h-5.05c-8 0-14-4.92-14-11a11 11 0 0 1 9.43-10.88 17.985 17.985 0 0 1 33.68-4.12z" fill="#83d9f2"></path><path d="m16 27a5.828 5.828 0 0 1 -7 3c-2.681-.874-4.271-3.333-4.8-6.085a11.009 11.009 0 0 0 -.2 2.085c0 6.08 6 11 14 11h5.05a12 12 0 0 1 7.29-19.872c-6.71.024-11.161 4.309-14.34 9.872z" fill="#69cae6"></path><path d="m35.143 17.422c.2.054.4.105.591.168a12.991 12.991 0 0 1 11.3-6.59h.11a18 18 0 0 0 -1.111-1.908c-8.452.784-10.46 6.482-10.89 8.33z" fill="#69cae6"></path><path d="m63 63h-1c-7.018 0-13.264-5.385-14.692-6.707l-2.373 2.373a1.134 1.134 0 0 1 -1.935-.8v-8.6a2.267 2.267 0 0 1 2.267-2.266h8.6a1.134 1.134 0 0 1 .8 1.935l-2.831 2.831c1.841 1.612 6.496 5.234 11.164 5.234z" fill="#a4eaff"></path><path d="m1 63h1c7.018 0 13.264-5.385 14.692-6.707l2.373 2.373a1.134 1.134 0 0 0 1.935-.8v-8.6a2.267 2.267 0 0 0 -2.267-2.266h-8.6a1.134 1.134 0 0 0 -.8 1.935l2.831 2.831c-1.841 1.612-6.496 5.234-11.164 5.234z" fill="#a4eaff"></path><path d="m27 49v-6h-2.2a1.928 1.928 0 0 1 -1.63-1.112 2.189 2.189 0 0 1 .345-2.268l5.87-6.4a3.554 3.554 0 0 1 2.615-1.22 3.554 3.554 0 0 1 2.615 1.216l5.87 6.4a2.189 2.189 0 0 1 .345 2.268 1.928 1.928 0 0 1 -1.63 1.116h-2.2v6z" fill="#83d9f2"></path><path d="m29.385 35.216a3.42 3.42 0 0 1 5.23 0l5.87 6.4a1.838 1.838 0 0 1 .263.4 1.337 1.337 0 0 0 .082-.129 2.189 2.189 0 0 0 -.345-2.268l-5.87-6.4a3.42 3.42 0 0 0 -5.23 0l-5.87 6.4a2.189 2.189 0 0 0 -.345 2.268 1.337 1.337 0 0 0 .082.129 1.838 1.838 0 0 1 .263-.4z" fill="#69cae6"></path><path d="m34 46h-3a1 1 0 0 1 -1-1v-6a1 1 0 0 1 2 0v5h2a1 1 0 0 1 0 2z" fill="#fff"></path><path d="m27 50h10v2h-10z" fill="#a4eaff" transform="matrix(-1 0 0 -1 64 102)"></path><path d="m27 53h10v1h-10z" fill="#ccf3ff" transform="matrix(-1 0 0 -1 64 107)"></path></g></svg>